<svg width="1440" height="2828" viewBox="0 0 1440 2828" fill="none" xmlns="http://www.w3.org/2000/svg">
<path d="M0 40.0001C0 17.9087 17.9086 0 40 0H379.868C394.972 0 408.789 8.5079 415.587 21.9955L501.913 193.256C508.711 206.743 522.528 215.251 537.632 215.251H902.317C917.448 215.251 931.284 206.713 938.069 193.189L1023.93 22.0617C1030.72 8.53771 1044.55 0 1059.68 0H1400C1422.09 0 1440 17.9086 1440 40V2788C1440 2810.09 1422.09 2828 1400 2828H40C17.9086 2828 0 2810.09 0 2788V40.0001Z" fill="#E7E7E7"/>
</svg>
